# xmcd CD database file
#
# Track frame offsets:
#	150
#	18326
#	35763
#	47036
#	61368
#	75283
#	92633
#	104616
#	115593
#	128993
#	143733
#	161916
#	187021
#	200953
#
# Disc length: 2987 seconds
#
# Revision: 1
# Processed by: cddbd v1.5.2PL0 Copyright (c) Steve Scherf et al.
# Submitted via: CDex 1.51
#
DISCID=c50ba90e
DTITLE=101 Strings Orchestra - Strictly Swing and Jive
DYEAR=2000
DGENRE=Jazz
TTITLE0=Zoot Suit Riot
TTITLE1=In The Mood
TTITLE2=All of Me
TTITLE3=Tuxedo Junction
TTITLE4=Just A Gigolo/ Ain't Got Nobody
TTITLE5=Begin The Beguine
TTITLE6=Don't Get Around Much Anymore
TTITLE7=Why Was I Born
TTITLE8=Choo Choo Ch'Boogie
TTITLE9=Pennsylvania 6-5000
TTITLE10=Chattanooga Choo Choo
TTITLE11=More Than You Know
TTITLE12=Take The "A" Train
TTITLE13=Jump, Jive and Wail
EXTD=YEAR: 2000
EXTT0=
EXTT1=
EXTT2=
EXTT3=
EXTT4=
EXTT5=
EXTT6=
EXTT7=
EXTT8=
EXTT9=
EXTT10=
EXTT11=
EXTT12=
EXTT13=
PLAYORDER=
